<mxfile host="app.diagrams.net" modified="2021-03-16T11:59:27.374Z" agent="5.0 (Windows NT 10.0; Win64; x64) AppleWebKit/537.36 (KHTML, like Gecko) Chrome/89.0.4389.82 Safari/537.36" etag="cJGqpfG7zxuxjegfuFP3" version="14.4.8" type="github">
  <diagram id="oowrXcrvtdDRFIZiEdIR" name="Page-1">
    <mxGraphModel dx="2062" dy="1122" grid="1" gridSize="10" guides="1" tooltips="1" connect="1" arrows="1" fold="1" page="1" pageScale="1" pageWidth="850" pageHeight="1100" math="0" shadow="0">
      <root>
        <mxCell id="0" />
        <mxCell id="1" parent="0" />
        <mxCell id="nrUirEMT9XKP9YQ5gdiF-9" style="edgeStyle=none;rounded=0;orthogonalLoop=1;jettySize=auto;html=1;exitX=0.5;exitY=1;exitDx=0;exitDy=0;entryX=0.5;entryY=0;entryDx=0;entryDy=0;" edge="1" parent="1" source="nrUirEMT9XKP9YQ5gdiF-1" target="nrUirEMT9XKP9YQ5gdiF-2">
          <mxGeometry relative="1" as="geometry" />
        </mxCell>
        <mxCell id="nrUirEMT9XKP9YQ5gdiF-1" value="&lt;font style=&quot;font-size: 24px&quot;&gt;JAVA Application&lt;/font&gt;" style="shape=process;whiteSpace=wrap;html=1;backgroundOutline=1;" vertex="1" parent="1">
          <mxGeometry x="270" y="110" width="310" height="60" as="geometry" />
        </mxCell>
        <mxCell id="nrUirEMT9XKP9YQ5gdiF-10" style="edgeStyle=none;rounded=0;orthogonalLoop=1;jettySize=auto;html=1;exitX=0.5;exitY=1;exitDx=0;exitDy=0;entryX=0.5;entryY=0;entryDx=0;entryDy=0;" edge="1" parent="1" source="nrUirEMT9XKP9YQ5gdiF-2" target="nrUirEMT9XKP9YQ5gdiF-3">
          <mxGeometry relative="1" as="geometry" />
        </mxCell>
        <mxCell id="nrUirEMT9XKP9YQ5gdiF-2" value="&lt;font style=&quot;font-size: 24px&quot;&gt;JDBC API&lt;/font&gt;" style="rounded=1;whiteSpace=wrap;html=1;" vertex="1" parent="1">
          <mxGeometry x="270" y="220" width="310" height="60" as="geometry" />
        </mxCell>
        <mxCell id="nrUirEMT9XKP9YQ5gdiF-11" style="edgeStyle=orthogonalEdgeStyle;rounded=0;orthogonalLoop=1;jettySize=auto;html=1;exitX=0.5;exitY=1;exitDx=0;exitDy=0;entryX=0.5;entryY=0;entryDx=0;entryDy=0;" edge="1" parent="1" source="nrUirEMT9XKP9YQ5gdiF-3" target="nrUirEMT9XKP9YQ5gdiF-4">
          <mxGeometry relative="1" as="geometry">
            <Array as="points">
              <mxPoint x="425" y="420" />
              <mxPoint x="270" y="420" />
            </Array>
          </mxGeometry>
        </mxCell>
        <mxCell id="nrUirEMT9XKP9YQ5gdiF-12" style="edgeStyle=orthogonalEdgeStyle;rounded=0;orthogonalLoop=1;jettySize=auto;html=1;exitX=0.5;exitY=1;exitDx=0;exitDy=0;entryX=0.5;entryY=0;entryDx=0;entryDy=0;" edge="1" parent="1" source="nrUirEMT9XKP9YQ5gdiF-3" target="nrUirEMT9XKP9YQ5gdiF-5">
          <mxGeometry relative="1" as="geometry" />
        </mxCell>
        <mxCell id="nrUirEMT9XKP9YQ5gdiF-3" value="&lt;font style=&quot;font-size: 24px&quot;&gt;JDBC Driver Manager&lt;/font&gt;" style="rounded=1;whiteSpace=wrap;html=1;" vertex="1" parent="1">
          <mxGeometry x="270" y="330" width="310" height="60" as="geometry" />
        </mxCell>
        <mxCell id="nrUirEMT9XKP9YQ5gdiF-13" style="edgeStyle=none;rounded=0;orthogonalLoop=1;jettySize=auto;html=1;exitX=0.5;exitY=1;exitDx=0;exitDy=0;entryX=0.5;entryY=0;entryDx=0;entryDy=0;entryPerimeter=0;" edge="1" parent="1" source="nrUirEMT9XKP9YQ5gdiF-4" target="nrUirEMT9XKP9YQ5gdiF-6">
          <mxGeometry relative="1" as="geometry" />
        </mxCell>
        <mxCell id="nrUirEMT9XKP9YQ5gdiF-4" value="&lt;font style=&quot;font-size: 24px&quot;&gt;JDBC Driver&lt;/font&gt;" style="rounded=0;whiteSpace=wrap;html=1;" vertex="1" parent="1">
          <mxGeometry x="210" y="450" width="120" height="60" as="geometry" />
        </mxCell>
        <mxCell id="nrUirEMT9XKP9YQ5gdiF-14" style="edgeStyle=none;rounded=0;orthogonalLoop=1;jettySize=auto;html=1;exitX=0.5;exitY=1;exitDx=0;exitDy=0;" edge="1" parent="1" source="nrUirEMT9XKP9YQ5gdiF-5" target="nrUirEMT9XKP9YQ5gdiF-7">
          <mxGeometry relative="1" as="geometry" />
        </mxCell>
        <mxCell id="nrUirEMT9XKP9YQ5gdiF-5" value="&lt;font style=&quot;font-size: 24px&quot;&gt;JDBC Driver&lt;/font&gt;" style="rounded=0;whiteSpace=wrap;html=1;" vertex="1" parent="1">
          <mxGeometry x="510" y="450" width="120" height="60" as="geometry" />
        </mxCell>
        <mxCell id="nrUirEMT9XKP9YQ5gdiF-6" value="&lt;font style=&quot;font-size: 18px&quot;&gt;Microsoft SQL Server&lt;/font&gt;" style="shape=cylinder3;whiteSpace=wrap;html=1;boundedLbl=1;backgroundOutline=1;size=15;" vertex="1" parent="1">
          <mxGeometry x="210" y="560" width="120" height="130" as="geometry" />
        </mxCell>
        <mxCell id="nrUirEMT9XKP9YQ5gdiF-7" value="&lt;font style=&quot;font-size: 18px&quot;&gt;Oracle&lt;/font&gt;" style="shape=cylinder3;whiteSpace=wrap;html=1;boundedLbl=1;backgroundOutline=1;size=15;" vertex="1" parent="1">
          <mxGeometry x="511" y="570" width="120" height="130" as="geometry" />
        </mxCell>
      </root>
    </mxGraphModel>
  </diagram>
</mxfile>
